<svg width="36" height="36" viewBox="0 0 36 36" fill="none" xmlns="http://www.w3.org/2000/svg">
<rect width="36" height="36" rx="18" fill="#FDFDFD"/>
<path fill-rule="evenodd" clip-rule="evenodd" d="M21.8498 9.50065C22.4808 9.50065 23.1108 9.58965 23.7098 9.79065C27.4008 10.9906 28.7308 15.0406 27.6198 18.5806C26.9898 20.3896 25.9598 22.0406 24.6108 23.3896C22.6798 25.2596 20.5608 26.9196 18.2798 28.3496L18.0298 28.5006L17.7698 28.3396C15.4808 26.9196 13.3498 25.2596 11.4008 23.3796C10.0608 22.0306 9.02977 20.3896 8.38977 18.5806C7.25977 15.0406 8.58977 10.9906 12.3208 9.76965C12.6108 9.66965 12.9098 9.59965 13.2098 9.56065H13.3298C13.6108 9.51965 13.8898 9.50065 14.1698 9.50065H14.2798C14.9098 9.51965 15.5198 9.62965 16.1108 9.83065H16.1698C16.2098 9.84965 16.2398 9.87065 16.2598 9.88965C16.4808 9.96065 16.6898 10.0406 16.8898 10.1506L17.2698 10.3206C17.3616 10.3696 17.4647 10.4444 17.5537 10.5091C17.6102 10.5501 17.661 10.587 17.6998 10.6106C17.7161 10.6203 17.7327 10.63 17.7494 10.6397C17.8351 10.6898 17.9245 10.7419 17.9998 10.7996C19.1108 9.95065 20.4598 9.49065 21.8498 9.50065ZM24.5098 16.7006C24.9198 16.6896 25.2698 16.3606 25.2998 15.9396V15.8206C25.3298 14.4196 24.4808 13.1506 23.1898 12.6606C22.7798 12.5196 22.3298 12.7406 22.1798 13.1606C22.0398 13.5806 22.2598 14.0406 22.6798 14.1896C23.3208 14.4296 23.7498 15.0606 23.7498 15.7596V15.7906C23.7308 16.0196 23.7998 16.2406 23.9398 16.4106C24.0798 16.5806 24.2898 16.6796 24.5098 16.7006Z" fill="#F2994A"/>
</svg>
