<svg width="36" height="36" viewBox="0 0 36 36" fill="none" xmlns="http://www.w3.org/2000/svg">
<rect width="36" height="36" rx="18" fill="#FDFDFD"/>
<path fill-rule="evenodd" clip-rule="evenodd" d="M22.4184 12.47H22.6232C25.3152 12.47 27.5 14.72 27.5 17.48V23C27.5 25.76 25.3152 28 22.6232 28H13.3768C10.6848 28 8.5 25.76 8.5 23V17.48C8.5 14.72 10.6848 12.47 13.3768 12.47H13.5816C13.6011 11.27 14.0595 10.15 14.8886 9.31C15.7274 8.46 16.8003 8.03 18.0098 8C20.4286 8 22.3891 10 22.4184 12.47ZM15.9127 10.38C15.3665 10.94 15.0642 11.68 15.0447 12.47H20.9553C20.9261 10.83 19.6191 9.5 18.0098 9.5C17.2587 9.5 16.4784 9.81 15.9127 10.38ZM21.7064 16.32C22.116 16.32 22.4379 15.98 22.4379 15.57V14.41C22.4379 14 22.116 13.66 21.7064 13.66C21.3065 13.66 20.9748 14 20.9748 14.41V15.57C20.9748 15.98 21.3065 16.32 21.7064 16.32ZM14.9374 15.57C14.9374 15.98 14.6155 16.32 14.2059 16.32C13.806 16.32 13.4743 15.98 13.4743 15.57V14.41C13.4743 14 13.806 13.66 14.2059 13.66C14.6155 13.66 14.9374 14 14.9374 14.41V15.57Z" fill="#2D9CDB"/>
</svg>
